<svg id="MEISTER_x5F_Logo_x5F_negativ_x5F_weiss_x5F_orange_x5F_Flaeche" version="1.1" width="208" viewBox="0 0 85.035 12.27" xmlns="http://www.w3.org/2000/svg">
  <style type="text/css">.st0 { fill-rule: evenodd; clip-rule: evenodd; fill: #f39200; }
</style>
  <g transform="translate(-28.35,-63.31)" clip-rule="evenodd" fill="#f39200" fill-rule="evenodd">
    <path class="st0" d="m66 70.11c0.57 0.36 1.24 0.57 1.96 0.57h3.43v1.96h-6.32c-0.3 0-0.55 0.25-0.55 0.55v1.84c0 0.3 0.25 0.55 0.55 0.55h7.11c2.13 0 3.86-1.73 3.86-3.86 0-0.58-0.12-1.12-0.35-1.61-0.61-1.33-1.95-2.25-3.51-2.25h-7.81c0.24 0.94 0.83 1.74 1.63 2.25"/>
    <path class="st0" d="m55.76 72.64h-5.83v-1.96h5.33c0.3 0 0.55-0.25 0.55-0.55v-1.72c0-0.3-0.25-0.55-0.55-0.55h-9.44c-0.3 0-0.55 0.25-0.55 0.55v6.62c0 0.3 0.25 0.55 0.55 0.55h9.94c0.3 0 0.55-0.25 0.55-0.55v-1.84c0-0.3-0.25-0.55-0.55-0.55z"/>
    <path class="st0" d="m98.45 72.64h-5.83v-1.96h5.34c0.3 0 0.55-0.25 0.55-0.55v-1.72c0-0.3-0.25-0.55-0.55-0.55h-9.44c-0.3 0-0.55 0.25-0.55 0.55v6.62c0 0.3 0.25 0.55 0.55 0.55h9.94c0.3 0 0.55-0.25 0.55-0.55v-1.84c-0.01-0.3-0.26-0.55-0.56-0.55z"/>
    <path class="st0" d="m75.33 65.58v-1.72c0-0.3-0.25-0.55-0.55-0.55h-6.81c-1.74 0-3.19 1.2-3.58 2.82h10.39c0.3 0.01 0.55-0.24 0.55-0.55z"/>
    <path class="st0" d="m42.76 67.85h-13.86c-0.3 0-0.55 0.25-0.55 0.55v6.62c0 0.3 0.25 0.55 0.55 0.55h3.56c0.3 0 0.55-0.25 0.55-0.55l0.02-5.21 0.17 0.29 2.36 4.14c0.15 0.26 0.4 0.26 0.55 0l2.38-4.14 0.17-0.29v5.21c0 0.3 0.25 0.55 0.55 0.55h3.56c0.3 0 0.55-0.25 0.55-0.55v-6.62c-0.01-0.3-0.26-0.55-0.56-0.55z"/>
    <path class="st0" d="m28.9 66.14h6.09c0.3 0 0.43-0.21 0.28-0.48l-1.08-1.87c-0.15-0.26-0.52-0.48-0.83-0.48h-4.46c-0.3 0-0.55 0.25-0.55 0.55v1.72c0 0.31 0.24 0.56 0.55 0.56z"/>
    <path class="st0" d="m101.39 66.14h11.37c-0.39-1.62-1.84-2.82-3.58-2.82h-7.79c-0.3 0-0.55 0.25-0.55 0.55v1.72c0 0.3 0.25 0.55 0.55 0.55z"/>
    <path class="st0" d="m42.76 63.32h-4.46c-0.3 0-0.68 0.21-0.83 0.48l-1.08 1.87c-0.15 0.26-0.03 0.48 0.27 0.48h6.09c0.3 0 0.55-0.25 0.55-0.55v-1.72c0.01-0.32-0.24-0.56-0.54-0.56z"/>
    <path class="st0" d="m98.45 63.32h-9.94c-0.3 0-0.55 0.25-0.55 0.55v1.72c0 0.3 0.25 0.55 0.55 0.55h9.94c0.3 0 0.55-0.25 0.55-0.55v-1.72c0-0.31-0.25-0.55-0.55-0.55z"/>
    <path class="st0" d="m55.76 63.32h-9.94c-0.3 0-0.55 0.25-0.55 0.55v1.72c0 0.3 0.25 0.55 0.55 0.55h9.94c0.3 0 0.55-0.25 0.55-0.55v-1.72c0-0.31-0.25-0.55-0.55-0.55z"/>
    <path class="st0" d="m113.32 75.1-2.72-4.71c0.19-0.08 0.37-0.17 0.55-0.28 0.8-0.5 1.39-1.31 1.61-2.25h-11.37c-0.3 0-0.55 0.25-0.55 0.55v6.62c0 0.3 0.25 0.55 0.55 0.55h3.56c0.3 0 0.55-0.25 0.55-0.55v-4.36h0.6l2.56 4.43c0.15 0.26 0.52 0.48 0.83 0.48h3.56c0.3 0 0.42-0.21 0.27-0.48z"/>
    <path class="st0" d="m86.3 63.32h-9.32c-0.3 0-0.55 0.25-0.55 0.55v1.72c0 0.3 0.25 0.55 0.55 0.55h9.32c0.3 0 0.55-0.25 0.55-0.55v-1.72c0.01-0.31-0.24-0.55-0.55-0.55z"/>
    <path class="st0" d="m62.14 67.85h-3.56c-0.3 0-0.55 0.25-0.55 0.55v6.62c0 0.3 0.25 0.55 0.55 0.55h3.56c0.3 0 0.55-0.25 0.55-0.55v-6.62c0-0.3-0.25-0.55-0.55-0.55z"/>
    <path class="st0" d="m62.14 63.32h-3.56c-0.3 0-0.55 0.25-0.55 0.55v1.72c0 0.3 0.25 0.55 0.55 0.55h3.56c0.3 0 0.55-0.25 0.55-0.55v-1.72c0-0.31-0.25-0.55-0.55-0.55z"/>
    <path class="st0" d="m83.42 67.85h-3.56c-0.3 0-0.55 0.25-0.55 0.55v6.62c0 0.3 0.25 0.55 0.55 0.55h3.56c0.3 0 0.55-0.25 0.55-0.55v-6.62c0-0.3-0.25-0.55-0.55-0.55z"/>
  </g>
</svg>
