<svg xmlns="http://www.w3.org/2000/svg" width="417.983" height="332.954" viewBox="0 0 417.983 332.954">
  <g id="Group_10" data-name="Group 10" transform="translate(884.326 -762.875)">
    <path id="Path_34" data-name="Path 34" d="M0,0,108.657.905l.187,22.395L.187,22.395Z" transform="translate(-597.398 842.714) rotate(45)" fill="#fff"/>
    <path id="Path_35" data-name="Path 35" d="M.091.45,108.748-.455l-.187,22.4L-.1,22.845Z" transform="translate(-502.793 938.773) rotate(135)" fill="#fff"/>
    <path id="Path_36" data-name="Path 36" d="M0,0,108.657.905l.187,22.395L.187,22.395Z" transform="translate(-561.337 842.714) rotate(45)" fill="#fff"/>
    <path id="Path_37" data-name="Path 37" d="M.091.45,108.748-.455l-.187,22.4L-.1,22.845Z" transform="translate(-466.732 938.773) rotate(135)" fill="#fff"/>
    <path id="Path_38" data-name="Path 38" d="M.091.45,108.748-.455l-.187,22.4L-.1,22.845Z" transform="translate(-538.853 938.774) rotate(135)" fill="#fff"/>
    <path id="Path_39" data-name="Path 39" d="M0,0,108.657.905l.187,22.395L.187,22.395Z" transform="translate(-633.458 1002.39) rotate(45)" fill="#fff"/>
    <path id="Path_40" data-name="Path 40" d="M0,0,108.657.905l.187,22.395L.187,22.395Z" transform="translate(-633.458 842.714) rotate(45)" fill="#fff"/>
    <path id="Path_41" data-name="Path 41" d="M.091.45,108.748-.455l-.187,22.4L-.1,22.845Z" transform="translate(-574.913 938.773) rotate(135)" fill="#fff"/>
    <path id="Path_42" data-name="Path 42" d="M0,0,108.657.905l.187,22.395L.187,22.395Z" transform="translate(-597.398 1002.39) rotate(45)" fill="#fff"/>
    <path id="Path_43" data-name="Path 43" d="M0,0,108.657.905l.187,22.395L.187,22.395Z" transform="translate(-561.337 1002.39) rotate(45)" fill="#fff"/>
    <path id="Path_44" data-name="Path 44" d="M.091.45,108.748-.455l-.187,22.4L-.1,22.845Z" transform="translate(-502.793 779.097) rotate(135)" fill="#fff"/>
    <path id="Path_45" data-name="Path 45" d="M.091.45,108.748-.455l-.187,22.4L-.1,22.845Z" transform="translate(-466.732 779.097) rotate(135)" fill="#fff"/>
    <path id="Path_46" data-name="Path 46" d="M.091.45,108.748-.455l-.187,22.4L-.1,22.845Z" transform="translate(-538.853 779.097) rotate(135)" fill="#fff"/>
    <path id="Path_47" data-name="Path 47" d="M.091.45,108.748-.455l-.187,22.4L-.1,22.845Z" transform="translate(-574.913 779.097) rotate(135)" fill="#fff"/>
    <path id="Path_48" data-name="Path 48" d="M0,0,108.657.905l.187,22.395L.187,22.395Z" transform="translate(-669.518 1002.39) rotate(45)" fill="#fff"/>
    <path id="Path_49" data-name="Path 49" d="M0,0,108.657.905l.187,22.395L.187,22.395Z" transform="translate(-669.518 842.714) rotate(45)" fill="#fff"/>
    <path id="Path_50" data-name="Path 50" d="M.091.45,108.748-.455l-.187,22.4L-.1,22.845Z" transform="translate(-610.974 938.773) rotate(135)" fill="#fff"/>
    <path id="Path_51" data-name="Path 51" d="M.091.45,108.748-.455l-.187,22.4L-.1,22.845Z" transform="translate(-610.974 779.097) rotate(135)" fill="#fff"/>
    <path id="Path_52" data-name="Path 52" d="M0,0,108.657.905l.187,22.395L.187,22.395Z" transform="translate(-597.398 842.714) rotate(45)" fill="#fff"/>
    <path id="Path_53" data-name="Path 53" d="M.091.45,108.748-.455l-.187,22.4L-.1,22.845Z" transform="translate(-538.853 938.774) rotate(135)" fill="#fff"/>
    <path id="Path_54" data-name="Path 54" d="M0,0,108.657.905l.187,22.395L.187,22.395Z" transform="translate(-633.458 1002.39) rotate(45)" fill="#fff"/>
    <path id="Path_55" data-name="Path 55" d="M0,0,108.657.905l.187,22.395L.187,22.395Z" transform="translate(-633.458 842.714) rotate(45)" fill="#fff"/>
    <path id="Path_56" data-name="Path 56" d="M.091.45,108.748-.455l-.187,22.4L-.1,22.845Z" transform="translate(-574.913 938.773) rotate(135)" fill="#fff"/>
    <path id="Path_57" data-name="Path 57" d="M0,0,108.657.905l.187,22.395L.187,22.395Z" transform="translate(-597.398 1002.39) rotate(45)" fill="#fff"/>
    <path id="Path_58" data-name="Path 58" d="M.091.45,108.748-.455l-.187,22.4L-.1,22.845Z" transform="translate(-502.793 779.097) rotate(135)" fill="#fff"/>
    <path id="Path_59" data-name="Path 59" d="M.091.45,108.748-.455l-.187,22.4L-.1,22.845Z" transform="translate(-538.853 779.097) rotate(135)" fill="#fff"/>
    <path id="Path_60" data-name="Path 60" d="M.091.45,108.748-.455l-.187,22.4L-.1,22.845Z" transform="translate(-574.913 779.097) rotate(135)" fill="#fff"/>
    <path id="Path_61" data-name="Path 61" d="M0,0,108.657.905l.187,22.395L.187,22.395Z" transform="translate(-669.518 1002.39) rotate(45)" fill="#fff"/>
    <path id="Path_62" data-name="Path 62" d="M0,0,108.657.905l.187,22.395L.187,22.395Z" transform="translate(-669.518 842.714) rotate(45)" fill="#fff"/>
    <path id="Path_63" data-name="Path 63" d="M.091.45,108.748-.455l-.187,22.4L-.1,22.845Z" transform="translate(-610.974 938.773) rotate(135)" fill="#fff"/>
    <path id="Path_64" data-name="Path 64" d="M.091.45,108.748-.455l-.187,22.4L-.1,22.845Z" transform="translate(-610.974 779.097) rotate(135)" fill="#fff"/>
    <path id="Path_65" data-name="Path 65" d="M0,0,108.657.905l.187,22.395L.187,22.395Z" transform="translate(-705.579 842.714) rotate(45)" fill="#fff"/>
    <path id="Path_66" data-name="Path 66" d="M.091.45,108.748-.455l-.187,22.4L-.1,22.845Z" transform="translate(-647.034 938.773) rotate(135)" fill="#fff"/>
    <path id="Path_67" data-name="Path 67" d="M0,0,108.657.905l.187,22.395L.187,22.395Z" transform="translate(-741.639 1002.39) rotate(45)" fill="#fff"/>
    <path id="Path_68" data-name="Path 68" d="M0,0,108.657.905l.187,22.395L.187,22.395Z" transform="translate(-741.639 842.714) rotate(45)" fill="#fff"/>
    <path id="Path_69" data-name="Path 69" d="M.091.45,108.748-.455l-.187,22.4L-.1,22.845Z" transform="translate(-683.094 938.773) rotate(135)" fill="#fff"/>
    <path id="Path_70" data-name="Path 70" d="M0,0,108.657.905l.187,22.395L.187,22.395Z" transform="translate(-705.579 1002.39) rotate(45)" fill="#fff"/>
    <path id="Path_71" data-name="Path 71" d="M.091.45,108.748-.455l-.187,22.4L-.1,22.845Z" transform="translate(-647.034 779.097) rotate(135)" fill="#fff"/>
    <path id="Path_72" data-name="Path 72" d="M.091.45,108.748-.455l-.187,22.4L-.1,22.845Z" transform="translate(-683.094 779.097) rotate(135)" fill="#fff"/>
    <path id="Path_73" data-name="Path 73" d="M0,0,108.657.905l.187,22.395L.187,22.395Z" transform="translate(-777.699 1002.39) rotate(45)" fill="#fff"/>
    <path id="Path_74" data-name="Path 74" d="M0,0,108.657.905l.187,22.395L.187,22.395Z" transform="translate(-777.699 842.714) rotate(45)" fill="#fff"/>
    <path id="Path_75" data-name="Path 75" d="M.091.45,108.748-.455l-.187,22.4L-.1,22.845Z" transform="translate(-719.155 938.773) rotate(135)" fill="#fff"/>
    <path id="Path_76" data-name="Path 76" d="M.091.45,108.748-.455l-.187,22.4L-.1,22.845Z" transform="translate(-719.155 779.097) rotate(135)" fill="#fff"/>
    <path id="Path_77" data-name="Path 77" d="M0,0,108.657.905l.187,22.395L.187,22.395Z" transform="translate(-813.76 842.714) rotate(45)" fill="#fff"/>
    <path id="Path_78" data-name="Path 78" d="M.091.45,108.748-.455l-.187,22.4L-.1,22.845Z" transform="translate(-755.215 938.773) rotate(135)" fill="#fff"/>
    <path id="Path_79" data-name="Path 79" d="M0,0,108.657.905l.187,22.395L.187,22.395Z" transform="translate(-849.82 1002.39) rotate(45)" fill="#fff"/>
    <path id="Path_80" data-name="Path 80" d="M0,0,108.657.905l.187,22.395L.187,22.395Z" transform="translate(-849.82 842.714) rotate(45)" fill="#fff"/>
    <path id="Path_81" data-name="Path 81" d="M.091.45,108.748-.455l-.187,22.4L-.1,22.845Z" transform="translate(-791.275 938.773) rotate(135)" fill="#fff"/>
    <path id="Path_82" data-name="Path 82" d="M0,0,108.657.905l.187,22.395L.187,22.395Z" transform="translate(-813.76 1002.39) rotate(45)" fill="#fff"/>
    <path id="Path_83" data-name="Path 83" d="M.091.45,108.748-.455l-.187,22.4L-.1,22.845Z" transform="translate(-755.215 779.097) rotate(135)" fill="#fff"/>
    <path id="Path_84" data-name="Path 84" d="M.091.45,108.748-.455l-.187,22.4L-.1,22.845Z" transform="translate(-791.275 779.097) rotate(135)" fill="#fff"/>
  </g>
</svg>
